# xmcd
#
# Track frame offsets:
#	150
#	36300
#	73590
#	114304
#	142975
#	174176
#	213901
#	246824
#	277847
#
# Disc length: 4176 seconds
#
# Revision: 0
# Processed by: cddbd v1.5.2PL0 Copyright (c) Steve Scherf et al.
# Submitted via: audiograbber 1.83.01
#
DISCID=76104e09
DTITLE=Compiled By Nano - Origin Four - Disc Left
DYEAR=1900
DGENRE=Psytrance
TTITLE0=D-Addiction - Bass Monkey
TTITLE1=Shayman - Landing on the Moon
TTITLE2=Loud - Tales from the Loudmobile (Broken Toy RMX)
TTITLE3=The Commercial Hippies - Micro Magnetic
TTITLE4=Headroom - Will Never End (Broken Toy RMX)
TTITLE5=Master Blasters - Phoenix
TTITLE6=Laughing Buddha - Threadone
TTITLE7=Tristan and Regan - Pink Flurry Armadillo
TTITLE8=Allaby - Hardfire
EXTD=
EXTT0=
EXTT1=
EXTT2=
EXTT3=
EXTT4=
EXTT5=
EXTT6=
EXTT7=
EXTT8=
PLAYORDER=
